<?xml version="1.0" standalone="no"?>
<!DOCTYPE svg PUBLIC "-//W3C//DTD SVG 20010904//EN"
 "http://www.w3.org/TR/2001/REC-SVG-20010904/DTD/svg10.dtd">
<svg version="1.0" xmlns="http://www.w3.org/2000/svg"
 width="1920.000000pt" height="1080.000000pt" viewBox="0 0 1920.000000 1080.000000"
 preserveAspectRatio="xMidYMid meet">
<metadata>
Created by Visioniod Matrix Systems LLP.
</metadata>
<g transform="translate(0.000000,1080.000000) scale(0.100000,-0.100000)"
fill="#000000" stroke="none">
<path d="M9330 9089 c-312 -33 -406 -49 -610 -100 -210 -52 -451 -132 -585
-194 -370 -170 -608 -314 -875 -529 -125 -101 -139 -114 -295 -270 -165 -165
-282 -302 -402 -471 -73 -102 -193 -290 -193 -302 0 -3 -8 -17 -19 -31 -19
-28 -125 -235 -156 -307 -10 -22 -23 -54 -31 -71 -39 -88 -114 -295 -134 -369
-33 -118 -53 -196 -60 -235 -5 -25 -12 -53 -16 -64 -6 -16 -4 -17 12 -8 12 6
25 31 33 64 21 86 87 278 142 415 167 419 435 833 741 1145 250 254 553 486
859 658 95 53 331 168 355 172 14 2 22 -7 32 -37 15 -42 13 -122 -8 -475 -28
-468 -22 -1109 15 -1645 16 -227 20 -263 38 -312 l11 -33 543 0 543 0 0 33 c0
37 -118 457 -203 722 -175 549 -391 1094 -651 1650 -66 139 -77 184 -53 202
20 15 256 81 459 128 210 49 680 93 860 82 335 -22 426 -32 598 -62 110 -20
260 -55 284 -67 19 -10 19 -31 0 -108 -5 -25 -2 -26 71 -45 42 -10 79 -23 83
-29 4 -6 12 -40 19 -76 l12 -65 -5 92 c-5 88 7 173 25 173 11 0 209 -69 246
-85 17 -7 86 -39 155 -69 263 -118 589 -316 785 -477 192 -158 463 -422 574
-559 29 -36 59 -73 67 -83 8 -10 43 -57 77 -105 254 -351 423 -687 536 -1069
30 -99 42 -126 66 -145 22 -17 27 -18 23 -6 -4 9 -10 34 -14 55 -3 21 -17 79
-29 128 -21 82 -33 122 -71 240 -80 253 -240 582 -412 850 -377 586 -961 1086
-1607 1376 -121 54 -341 137 -425 160 -19 6 -48 14 -65 19 -270 77 -410 102
-767 140 -111 12 -467 11 -578 -1z"/>
<path d="M14600 9099 c0 -4 7 -26 15 -49 8 -23 12 -47 8 -53 -4 -6 -1 -7 7 -2
10 6 11 2 6 -18 -3 -14 -2 -35 2 -48 9 -25 4 -69 -8 -69 -4 0 -17 19 -29 43
-24 48 -24 47 4 -98 8 -44 21 -109 27 -145 15 -86 24 -6458 9 -6540 -5 -30
-15 -89 -22 -130 -100 -626 -539 -1204 -1124 -1481 -197 -93 -377 -146 -615
-182 -101 -15 -6409 -15 -6520 0 -156 22 -306 61 -490 128 -82 30 -260 123
-359 188 -229 150 -427 349 -581 582 -66 101 -156 269 -188 355 -63 164 -90
260 -112 385 -6 39 -16 86 -21 106 -5 22 -9 1335 -9 3280 l0 3244 29 155 c16
85 33 164 37 174 14 37 -12 7 -31 -34 -10 -22 -21 -40 -26 -40 -4 0 -6 27 -6
60 1 33 6 60 11 60 4 0 6 7 2 15 -3 8 1 33 9 56 28 78 8 50 -30 -43 -101 -248
-143 -410 -155 -608 -12 -186 -12 -6403 -1 -6605 8 -128 15 -172 51 -300 106
-387 279 -689 556 -971 106 -107 206 -188 341 -276 143 -94 174 -110 331 -177
l142 -61 3761 0 3761 0 121 51 c165 69 220 98 350 183 112 73 277 205 352 282
354 362 580 854 605 1319 12 206 12 6287 0 6505 -8 162 -16 211 -71 410 -26
96 -137 375 -139 349z"/>
<path d="M10765 8258 c6 -19 33 -413 45 -659 14 -289 14 -917 0 -1218 -6 -134
-9 -246 -6 -249 15 -15 21 23 29 186 12 254 1 1236 -17 1467 -27 352 -40 485
-48 485 -4 0 -5 -6 -3 -12z"/>
<path d="M9278 5810 c-293 -37 -428 -185 -428 -469 0 -163 38 -270 123 -348
103 -95 212 -127 427 -127 215 0 324 32 427 127 85 78 123 185 123 348 0 203
-72 339 -218 413 -92 47 -312 74 -454 56z m310 -55 c201 -48 302 -188 302
-422 0 -200 -93 -344 -255 -398 -126 -42 -344 -41 -472 1 -160 52 -253 198
-253 397 0 229 96 368 290 419 85 22 300 24 388 3z"/>
<path d="M12428 5810 c-293 -37 -428 -185 -428 -469 0 -163 38 -270 123 -348
103 -95 212 -127 427 -127 215 0 324 32 427 127 85 78 123 185 123 348 0 203
-72 339 -218 413 -92 47 -312 74 -454 56z m310 -55 c201 -48 302 -188 302
-422 0 -200 -93 -344 -255 -398 -126 -42 -344 -41 -472 1 -160 52 -253 198
-253 397 0 229 96 368 290 419 85 22 300 24 388 3z"/>
<path d="M7361 5795 c-208 -58 -307 -169 -258 -288 15 -35 79 -97 124 -120 81
-42 168 -59 348 -67 133 -6 195 -13 236 -27 199 -68 253 -186 132 -292 -88
-78 -224 -107 -462 -99 -161 6 -222 22 -300 78 -26 19 -53 30 -73 30 l-33 -1
43 -38 c23 -22 73 -52 110 -67 65 -28 72 -29 281 -32 249 -4 315 6 426 66 181
98 179 258 -5 352 -97 49 -154 61 -340 70 -195 9 -270 26 -353 81 -157 104
-81 262 153 320 37 9 115 14 235 14 205 0 257 -11 340 -70 38 -26 60 -35 90
-35 l40 1 -39 34 c-21 19 -73 49 -115 67 l-76 33 -225 2 c-175 2 -237 -1 -279
-12z"/>
<path d="M5200 5796 c0 -3 121 -209 268 -458 l269 -453 36 -3 37 -3 -106 178
c-58 98 -181 305 -272 460 -164 278 -168 283 -199 283 -18 0 -33 -2 -33 -4z"/>
<path d="M6162 5608 c-55 -106 -146 -284 -203 -395 -57 -112 -107 -203 -111
-203 -4 0 -26 31 -49 70 -38 64 -43 69 -68 64 -14 -4 -27 -8 -29 -9 -2 -1 32
-60 74 -129 42 -70 77 -126 78 -124 7 9 466 908 466 913 0 3 -13 5 -29 5 -28
0 -34 -9 -129 -192z"/>
<path d="M6670 5360 l0 -440 -95 0 c-88 0 -95 -1 -95 -20 0 -19 7 -20 220 -20
213 0 220 1 220 20 0 19 -7 20 -90 20 l-90 0 0 420 0 420 90 0 c83 0 90 1 90
20 0 19 -7 20 -125 20 l-125 0 0 -440z"/>
<path d="M8430 5360 l0 -440 -95 0 c-88 0 -95 -1 -95 -20 0 -19 7 -20 220 -20
213 0 220 1 220 20 0 19 -7 20 -90 20 l-90 0 0 420 0 420 90 0 c83 0 90 1 90
20 0 19 -7 20 -125 20 l-125 0 0 -440z"/>
<path d="M11180 5340 l0 -460 30 0 30 0 0 460 0 460 -30 0 -30 0 0 -460z"/>
<path d="M11580 5360 l0 -440 -95 0 c-88 0 -95 -1 -95 -20 0 -19 7 -20 220
-20 213 0 220 1 220 20 0 19 -7 20 -90 20 l-90 0 0 420 0 420 90 0 c83 0 90 1
90 20 0 19 -7 20 -125 20 l-125 0 0 -440z"/>
<path d="M13270 5340 l0 -460 30 0 30 0 0 440 0 440 121 0 c298 0 541 -76 639
-200 123 -155 96 -370 -59 -484 -58 -43 -152 -86 -236 -109 -80 -22 -246 -47
-312 -47 l-53 0 0 45 c0 43 -1 45 -30 45 l-30 0 0 -67 0 -66 118 6 c390 22
649 141 721 332 19 50 22 74 19 145 -6 112 -32 172 -107 243 -138 132 -366
197 -693 197 l-158 0 0 -460z"/>
<path d="M10120 5336 l0 -456 30 0 30 0 2 398 3 398 474 -393 c260 -216 475
-393 477 -393 2 0 4 45 4 100 l0 100 -30 0 c-28 0 -30 -2 -30 -40 0 -22 -2
-40 -5 -40 -3 0 -213 172 -468 383 -254 210 -468 386 -475 390 -9 7 -12 -86
-12 -447z"/>
<path d="M5946 4581 c-3 -5 1 -28 8 -52 8 -24 18 -57 23 -74 6 -22 16 -31 41
-36 18 -4 558 -10 1200 -14 1147 -7 1167 -7 1189 -27 28 -26 56 -93 89 -209
277 -993 535 -1698 879 -2402 68 -139 92 -168 148 -182 26 -7 27 -6 27 37 0
24 -7 94 -15 154 -21 162 -53 496 -65 674 -5 85 -12 184 -15 220 -13 171 -17
994 -6 1260 7 157 14 295 18 308 l5 22 530 0 530 0 -7 -47 c-14 -96 -152 -641
-222 -873 -164 -546 -379 -1129 -585 -1587 -67 -149 -72 -185 -21 -138 87 81
465 1088 657 1750 60 208 166 623 196 769 21 103 53 195 78 226 l17 21 930 -1
c512 0 1097 -3 1302 -6 l371 -6 16 55 c9 30 16 62 16 70 0 8 7 30 15 50 8 19
11 37 8 41 -10 10 -7351 7 -7357 -3z"/>
<path d="M13923 1489 c-13 -5 -23 -13 -23 -19 0 -5 -8 -10 -17 -10 -15 0 -16
-2 -3 -10 13 -8 11 -11 -7 -16 -13 -4 -20 -10 -17 -15 3 -5 -1 -12 -10 -15 -8
-3 -12 -12 -9 -20 3 -9 -2 -14 -13 -14 -13 0 -15 -3 -7 -8 8 -5 3 -12 -16 -20
-17 -7 -34 -28 -46 -54 -10 -24 -21 -45 -24 -48 -10 -8 -31 -49 -31 -59 0 -13
-48 -61 -60 -61 -5 0 -7 -7 -4 -15 5 -12 -5 -15 -52 -16 -126 -3 -197 -13
-202 -29 -2 -5 -9 -10 -17 -10 -7 0 -18 -7 -25 -15 -7 -8 -18 -15 -25 -15 -8
0 -26 -13 -42 -29 -22 -22 -27 -34 -21 -50 6 -17 3 -22 -17 -27 -23 -6 -36
-34 -16 -34 6 0 6 -12 1 -29 -7 -26 -5 -31 18 -40 83 -32 177 -17 235 37 15
14 27 22 27 18 0 -5 7 -2 16 5 14 11 19 10 35 -9 10 -13 33 -27 51 -33 42 -12
134 -1 149 18 11 12 5 13 -38 7 -45 -6 -52 -4 -62 14 -13 25 -4 80 17 105 10
11 11 17 3 17 -7 0 -3 10 9 22 11 12 20 25 20 30 0 4 7 8 16 8 8 0 12 5 9 10
-3 6 -1 10 5 10 6 0 9 4 6 9 -3 5 5 20 18 34 13 14 22 28 20 30 -8 8 16 58 25
53 5 -4 12 6 15 22 4 15 24 48 46 72 22 25 40 55 40 68 0 12 6 22 14 22 8 0
26 20 40 44 30 51 31 56 12 56 -8 0 -16 4 -18 9 -2 5 -13 5 -25 0z m-323 -449
c0 -5 -20 -28 -45 -52 -24 -24 -45 -48 -45 -53 0 -11 -10 -18 -84 -53 -53 -26
-112 -24 -123 5 -7 18 25 83 44 90 7 3 10 9 7 14 -3 5 3 9 13 9 10 0 36 9 58
20 22 11 48 20 60 20 11 0 26 4 32 8 16 10 83 3 83 -8z"/>
<path d="M9012 1477 c-12 -7 -20 -16 -17 -19 4 -3 -3 -9 -14 -13 -12 -3 -19
-11 -16 -16 4 -5 1 -9 -4 -9 -6 0 -11 4 -11 8 0 5 -7 9 -15 9 -8 0 -15 -4 -15
-9 0 -5 -4 -6 -10 -3 -5 3 -10 2 -10 -2 0 -5 -11 -22 -24 -39 -14 -16 -25 -32
-25 -37 0 -4 -7 -20 -14 -35 -8 -15 -12 -34 -9 -42 2 -8 1 -12 -3 -8 -8 8 -37
-25 -48 -54 -3 -10 -11 -18 -17 -18 -5 0 -10 -6 -10 -14 0 -12 -73 -31 -150
-39 -8 -1 -21 -8 -28 -15 -12 -10 -11 -17 2 -37 9 -14 25 -25 35 -25 10 0 21
-7 25 -15 7 -20 7 -25 0 -24 -4 0 -12 -10 -19 -23 -6 -13 -16 -22 -21 -21 -6
1 -15 -7 -22 -18 -9 -14 -9 -19 -1 -19 7 0 4 -8 -6 -20 -10 -11 -24 -20 -32
-20 -9 0 -14 -9 -13 -22 3 -34 -10 -68 -26 -68 -17 0 -44 40 -41 60 2 8 16 35
31 60 16 24 29 51 30 60 1 8 13 29 28 45 l28 30 -58 14 c-70 16 -115 18 -144
4 -13 -6 -40 -18 -60 -26 -21 -9 -38 -22 -38 -29 0 -6 -3 -8 -6 -5 -11 10 -45
-13 -38 -25 4 -7 3 -8 -5 -4 -7 4 -18 -5 -29 -23 -9 -17 -25 -34 -35 -37 -11
-3 -16 -12 -13 -20 3 -8 1 -14 -4 -14 -6 0 -10 -7 -10 -15 0 -16 -19 -21 -21
-5 -5 47 -2 90 6 90 6 0 5 4 -2 8 -16 10 -5 52 13 52 18 0 18 15 -1 34 -39 38
-151 32 -224 -12 -53 -33 -61 -32 -61 6 0 23 -2 24 -37 17 -43 -8 -44 -8 -47
-27 -1 -7 -10 -27 -19 -44 -9 -17 -13 -34 -10 -38 4 -3 2 -6 -4 -6 -6 0 -17
-15 -24 -32 -7 -18 -26 -46 -41 -63 -27 -29 -28 -29 -28 -8 0 31 31 105 49
120 13 11 14 14 2 22 -8 5 -9 10 -2 12 7 3 8 14 3 34 -7 25 -14 30 -38 30 -16
0 -34 3 -39 7 -6 4 -16 -2 -23 -13 -7 -11 -8 -19 -2 -19 6 0 6 -9 0 -25 -5
-14 -7 -25 -4 -25 3 0 -4 -13 -15 -29 -12 -16 -21 -35 -21 -43 0 -11 -2 -10
-9 1 -5 7 -8 21 -6 30 1 8 -4 21 -11 28 -7 7 -10 22 -7 34 7 26 -13 40 -45 32
-19 -4 -23 -2 -20 13 3 17 -4 19 -62 18 -85 -2 -120 -11 -148 -40 -13 -13 -28
-24 -35 -24 -16 0 -37 -47 -30 -66 3 -8 -1 -14 -11 -14 -12 0 -15 -8 -12 -33
3 -17 5 -38 5 -44 1 -7 5 -13 11 -13 5 0 26 -11 46 -25 21 -14 43 -24 50 -21
7 3 17 -1 23 -8 8 -9 4 -22 -15 -47 -14 -19 -30 -33 -35 -31 -5 1 -9 -4 -9
-12 0 -13 -67 -66 -86 -66 -5 0 -20 -16 -34 -35 -26 -35 -34 -40 -160 -99 -58
-27 -95 -37 -160 -43 -89 -8 -132 0 -207 40 -18 10 -33 14 -33 10 0 -5 -5 -1
-10 7 -9 13 -10 13 -10 -1 0 -21 57 -73 100 -91 74 -31 105 -37 150 -28 25 4
57 6 72 3 32 -6 81 4 74 16 -3 4 17 13 44 20 27 7 54 19 61 27 6 8 26 14 43
14 26 -1 28 -2 13 -11 -9 -5 -22 -7 -27 -4 -6 3 -10 2 -10 -3 0 -6 7 -12 15
-16 8 -3 15 -1 15 4 0 6 7 10 15 10 9 0 20 10 25 23 5 12 9 18 9 14 1 -4 12 4
26 18 14 14 32 25 40 25 8 0 15 5 15 10 0 6 7 10 15 10 8 0 12 6 9 14 -3 8 4
16 18 19 26 7 128 102 128 120 1 7 23 30 50 51 28 22 50 45 50 51 0 20 36 46
54 39 11 -4 14 -9 7 -13 -7 -5 0 -16 18 -29 29 -21 29 -21 46 -1 10 10 26 19
36 19 21 0 69 -20 69 -29 0 -3 14 -7 31 -8 28 -2 31 0 26 23 -3 19 1 28 19 37
13 7 24 17 26 22 2 6 6 9 10 8 5 -2 7 2 5 9 -1 6 12 18 28 26 35 17 48 34 34
43 -5 3 4 6 21 6 36 0 50 11 30 24 -11 7 -7 8 13 5 20 -4 27 -1 24 8 -3 8 6
12 29 13 27 1 34 -3 34 -17 0 -11 -4 -21 -9 -24 -4 -3 -8 -16 -7 -28 1 -13 -2
-26 -6 -29 -5 -3 -5 -20 -2 -37 5 -26 13 -34 43 -42 20 -5 49 -10 64 -10 16 0
26 -4 23 -9 -3 -5 8 -14 24 -21 41 -17 134 -6 170 20 36 25 57 25 65 0 10 -32
42 -43 104 -35 75 9 101 15 101 26 0 5 -8 9 -17 9 -15 0 -15 3 4 18 24 18 69
97 49 85 -6 -3 -3 3 8 15 10 12 23 19 29 15 6 -4 8 0 4 10 -3 10 -2 17 4 17 6
0 8 4 5 9 -3 5 1 11 9 15 8 3 15 13 15 21 0 9 4 14 9 10 6 -3 13 1 18 8 4 8
25 17 46 20 22 3 35 2 32 -4 -4 -5 -2 -9 4 -9 7 0 7 -8 1 -25 -5 -14 -7 -25
-4 -25 3 0 -4 -13 -15 -29 -12 -16 -21 -33 -21 -39 0 -5 -10 -13 -21 -18 -20
-9 -21 -11 -5 -27 16 -16 16 -17 -1 -17 -14 -1 -13 -4 7 -15 15 -9 19 -14 10
-15 -9 0 -4 -9 15 -24 l30 -24 28 26 c15 14 27 34 27 44 0 27 32 101 49 115
13 11 14 14 2 22 -9 6 -9 10 -2 12 8 3 8 14 2 37 -9 30 -8 32 17 32 15 0 38 7
50 16 12 8 26 13 31 9 5 -3 12 -1 15 4 4 5 31 13 61 16 31 4 58 12 61 17 6 9
-48 6 -193 -13 -63 -7 -77 -6 -100 9 -34 21 -40 42 -15 49 21 5 46 49 37 64
-4 5 5 20 19 33 14 13 26 30 27 37 0 8 4 5 8 -6 5 -11 4 -25 -1 -32 -29 -36
80 -84 119 -52 11 9 14 10 9 2 -4 -8 -2 -11 6 -8 8 3 15 15 15 27 1 12 11 29
21 38 11 8 22 22 25 31 4 14 -2 15 -44 11 -35 -3 -49 -1 -49 8 0 9 -13 10 -47
5 l-48 -7 25 29 c13 15 38 43 54 60 48 53 41 79 -12 50z m-573 -466 c-26 -50
-131 -162 -153 -163 -4 0 -20 2 -36 6 -44 8 -40 44 10 89 50 46 115 87 136 87
10 0 14 6 11 14 -6 16 6 24 40 25 22 1 22 0 -8 -58z m-1027 37 c6 -17 -15 -91
-34 -121 -10 -14 -18 -32 -18 -38 0 -16 -71 -4 -82 13 -6 10 -8 10 -9 -2 0 -8
-7 0 -15 18 -8 17 -17 32 -20 32 -3 0 -3 -4 0 -9 4 -5 0 -11 -6 -14 -10 -3
-10 -7 0 -19 10 -12 10 -18 1 -23 -14 -9 -29 12 -29 42 0 32 37 69 105 103 63
31 101 38 107 18z"/>
<path d="M12466 1447 c-11 -17 -21 -38 -22 -46 -1 -8 -6 -17 -11 -20 -7 -5
-35 -58 -37 -71 -1 -5 -23 -32 -73 -89 -18 -20 -33 -39 -33 -43 0 -5 -8 -17
-17 -27 -32 -35 -41 -48 -61 -87 -11 -21 -29 -48 -41 -58 -12 -11 -21 -25 -21
-31 0 -7 -7 -18 -16 -26 -9 -7 -14 -22 -11 -36 2 -13 1 -23 -4 -23 -4 0 -6 -8
-4 -17 2 -10 4 -26 4 -35 1 -9 9 -19 19 -21 9 -3 0 -5 -20 -6 -29 -1 -41 4
-52 22 -19 28 -16 42 18 97 16 24 29 51 30 60 1 8 13 29 28 45 l28 30 -58 14
c-70 16 -115 18 -144 4 -13 -6 -40 -18 -60 -26 -21 -9 -38 -22 -38 -29 0 -6
-3 -8 -6 -5 -11 10 -45 -13 -38 -25 4 -7 3 -8 -5 -4 -7 4 -18 -5 -29 -23 -9
-17 -25 -34 -35 -37 -11 -3 -16 -12 -13 -20 3 -8 2 -14 -3 -14 -5 0 -11 -13
-13 -29 -3 -18 0 -28 5 -24 6 4 8 -2 5 -15 -4 -16 1 -23 23 -33 40 -16 134 -4
169 21 36 25 57 25 65 0 12 -37 40 -43 144 -31 53 7 113 14 135 16 21 3 45 10
52 16 8 6 14 8 14 3 0 -5 4 -4 8 2 4 6 18 14 32 18 15 5 20 4 12 -1 -9 -7 -5
-15 17 -30 l28 -22 27 28 c14 15 26 35 26 44 0 26 32 100 49 115 12 10 13 15
4 18 -45 19 98 59 187 52 l45 -3 -32 -15 c-17 -8 -30 -17 -27 -21 2 -4 -23
-18 -56 -32 -33 -15 -60 -31 -60 -37 0 -5 -9 -10 -19 -10 -25 0 -36 -17 -22
-34 8 -9 25 -10 74 -3 53 8 70 7 97 -7 18 -9 46 -16 62 -16 58 0 60 -96 2
-153 -52 -52 -91 -84 -114 -95 -52 -26 -70 -39 -62 -47 4 -4 -2 -5 -14 -1 -13
4 -26 1 -34 -9 -7 -8 -16 -12 -21 -9 -5 3 -9 0 -9 -5 0 -6 -6 -11 -14 -11 -8
0 -17 -6 -19 -12 -4 -9 -6 -9 -6 -2 -1 12 -87 -7 -124 -27 -10 -5 -27 -7 -38
-4 -14 5 -26 0 -40 -16 -10 -12 -19 -17 -19 -12 0 8 -14 7 -43 -2 -24 -7 -55
-11 -70 -8 -39 8 -34 -15 5 -25 43 -11 94 -2 325 57 99 25 197 73 276 136 59
47 95 104 75 116 -6 4 -1 10 12 14 18 6 20 9 9 16 -11 7 -11 9 -1 9 7 0 10 5
7 10 -3 6 3 10 14 10 12 0 21 7 21 16 0 14 2 14 15 0 18 -18 111 -31 170 -23
24 4 60 18 82 33 l38 26 -50 -6 c-129 -18 -162 -18 -192 -2 -20 10 -32 25 -36
43 -7 36 -4 38 35 22 89 -37 268 41 268 116 0 25 -22 57 -35 54 -14 -3 -68 12
-82 23 -16 12 -107 -7 -98 -22 6 -10 -23 -22 -36 -14 -5 3 -9 0 -9 -6 0 -6
-13 -16 -30 -21 -16 -6 -27 -15 -24 -20 3 -5 -2 -9 -10 -9 -16 0 -49 -53 -40
-63 3 -3 -4 -16 -16 -30 l-22 -25 -59 27 c-32 14 -59 28 -59 31 0 3 24 21 54
40 29 19 63 49 74 67 l21 31 -137 -5 c-75 -2 -164 -6 -197 -7 -33 -2 -65 1
-70 5 -6 5 -16 0 -23 -12 -7 -11 -8 -19 -2 -19 6 0 6 -9 0 -25 -5 -14 -7 -25
-4 -25 3 0 -4 -13 -15 -29 -12 -16 -21 -34 -21 -39 0 -6 -9 -14 -20 -17 -16
-5 -18 -10 -10 -25 9 -17 5 -20 -28 -30 -22 -5 -61 -13 -87 -17 -48 -6 -48 -6
-43 20 3 15 1 27 -4 27 -14 0 25 49 43 55 9 3 16 14 15 24 0 10 14 35 32 55
17 19 32 40 32 46 0 5 5 10 11 10 5 0 7 5 4 10 -3 6 -2 10 3 10 11 0 86 119
79 126 -3 3 1 13 9 22 8 10 15 22 16 27 2 6 11 20 22 33 24 27 31 63 14 74 -9
5 -3 8 14 8 20 0 26 4 22 15 -4 8 -1 22 6 30 10 12 10 18 0 30 -20 24 -43 17
-64 -18z m-427 -436 c-26 -50 -131 -162 -153 -163 -4 0 -20 2 -36 6 -44 8 -40
44 10 89 50 46 115 87 136 87 10 0 14 6 11 14 -6 16 6 24 40 25 22 1 22 0 -8
-58z"/>
<path d="M6157 1338 c-17 -6 -27 -16 -25 -26 1 -10 -1 -22 -5 -29 -24 -38 81
-83 120 -52 11 9 14 10 9 2 -4 -8 -2 -11 6 -8 8 3 15 15 15 27 1 12 11 29 21
38 11 8 22 22 25 31 4 14 -2 15 -44 11 -32 -3 -49 -1 -49 7 0 13 -35 13 -73
-1z"/>
<path d="M7727 1338 c-17 -6 -27 -16 -25 -26 1 -10 -1 -22 -5 -29 -24 -38 81
-83 120 -52 11 9 14 10 9 2 -4 -8 -2 -11 6 -8 8 3 15 15 15 27 1 12 11 29 21
38 11 8 22 22 25 31 4 14 -2 15 -44 11 -32 -3 -49 -1 -49 7 0 13 -35 13 -73
-1z"/>
<path d="M11027 1338 c-17 -6 -27 -16 -25 -26 1 -10 -1 -22 -5 -29 -24 -38 81
-83 120 -52 11 9 14 10 9 2 -4 -8 -2 -11 6 -8 8 3 15 15 15 27 1 12 11 29 21
38 11 8 22 22 25 31 4 14 -2 15 -44 11 -32 -3 -49 -1 -49 7 0 13 -35 13 -73
-1z"/>
<path d="M12587 1338 c-17 -6 -27 -16 -25 -26 1 -10 -1 -22 -5 -29 -24 -38 81
-83 120 -52 11 9 14 10 9 2 -4 -8 -2 -11 6 -8 8 3 15 15 15 27 1 12 11 29 21
38 11 8 22 22 25 31 4 14 -2 15 -44 11 -32 -3 -49 -1 -49 7 0 13 -35 13 -73
-1z"/>
<path d="M7000 1094 c-78 -28 -130 -54 -130 -66 0 -6 -3 -8 -6 -5 -11 10 -45
-13 -38 -25 4 -7 3 -8 -4 -4 -6 4 -19 -6 -29 -21 -10 -15 -22 -31 -27 -35 -13
-9 -27 0 -25 15 3 25 -2 36 -18 40 -11 3 -7 5 10 6 31 1 28 21 -4 21 -10 0
-18 3 -18 8 5 32 -24 54 -81 58 -45 4 -120 -17 -120 -33 0 -15 -15 -24 -46
-28 -20 -2 -25 1 -21 16 7 27 -32 42 -108 40 -67 -2 -80 -7 -93 -36 -8 -17
-16 -23 -28 -18 -13 5 -15 3 -9 -7 6 -10 4 -12 -8 -7 -9 3 -19 2 -22 -4 -4 -5
-3 -8 2 -7 4 2 9 0 11 -4 1 -5 0 -8 -3 -8 -7 0 -42 -34 -41 -40 3 -15 -29 -70
-43 -75 -24 -8 -64 -97 -48 -107 19 -12 87 -9 87 4 0 6 11 26 26 45 14 18 22
33 18 33 -4 0 0 8 8 18 8 9 22 33 31 53 9 20 24 39 32 43 8 3 15 11 15 19 0
21 58 50 88 42 20 -5 23 -8 12 -15 -12 -7 -11 -13 5 -31 11 -12 14 -19 8 -15
-7 4 -13 2 -13 -4 0 -6 -16 -34 -35 -63 -19 -28 -35 -59 -35 -69 0 -21 56 -38
97 -29 23 5 28 11 29 38 2 24 13 43 45 73 24 22 40 40 36 40 -4 0 -2 6 5 14 7
7 19 11 25 9 7 -3 13 2 13 11 0 9 5 16 10 16 6 0 9 6 8 13 -2 6 3 11 10 9 6
-1 12 2 12 8 0 5 13 10 29 10 23 0 30 -5 33 -22 4 -26 -17 -124 -32 -150 -24
-43 -7 -55 72 -49 15 1 41 -5 59 -15 42 -21 138 -13 179 16 36 25 57 25 65 0
10 -32 42 -43 104 -35 74 9 101 15 101 25 0 5 -27 6 -59 3 -54 -5 -60 -4 -74
18 -20 30 -18 44 17 99 16 24 29 51 30 60 1 8 13 29 28 45 l28 30 -58 13 c-91
21 -96 21 -112 16z m39 -83 c-26 -50 -131 -162 -153 -163 -4 0 -20 2 -36 6
-44 8 -40 44 10 89 50 46 115 87 136 87 10 0 14 6 11 14 -6 16 6 24 40 25 22
1 22 0 -8 -58z"/>
<path d="M6012 1069 c-7 -11 -8 -19 -2 -19 6 0 6 -9 0 -25 -5 -14 -7 -25 -4
-25 3 0 -4 -13 -15 -29 -12 -16 -21 -33 -21 -39 0 -5 -10 -13 -21 -18 -20 -9
-21 -11 -5 -27 16 -16 16 -17 -1 -17 -14 -1 -13 -4 7 -15 15 -9 19 -14 10 -15
-9 0 -4 -9 15 -24 l30 -24 28 26 c15 14 27 34 27 44 0 27 32 101 49 116 13 11
13 14 2 19 -9 4 -10 8 -2 12 6 4 7 18 2 36 -6 25 -13 30 -37 30 -16 0 -34 3
-39 7 -6 4 -16 -2 -23 -13z"/>
<path d="M9115 1079 c-81 -17 -120 -37 -157 -81 -41 -47 -60 -124 -36 -140 10
-6 10 -8 1 -8 -7 0 -13 -4 -13 -10 0 -5 7 -10 15 -10 8 0 15 -4 15 -8 0 -16
103 -32 140 -23 58 14 124 44 141 63 9 10 22 18 29 18 9 0 6 -8 -8 -23 l-22
-23 35 -13 c19 -7 35 -15 35 -19 0 -4 14 -8 31 -9 28 -2 31 0 26 23 -3 19 1
28 22 38 14 8 25 18 25 23 -1 4 2 7 7 6 5 -2 8 2 7 9 -2 6 11 18 27 26 35 17
48 34 34 43 -5 3 4 6 21 6 36 0 50 11 30 24 -11 7 -7 8 13 5 20 -4 27 -1 24 8
-3 8 6 12 29 13 27 1 34 -3 34 -17 0 -11 -4 -21 -9 -24 -4 -3 -8 -16 -7 -28 1
-13 -2 -26 -6 -29 -5 -3 -5 -20 -2 -37 5 -24 13 -34 32 -39 15 -3 36 -16 48
-28 16 -16 35 -22 73 -24 31 -1 51 3 51 9 0 6 -5 8 -12 4 -7 -4 -8 -3 -4 5 6
9 11 9 22 0 10 -8 14 -8 14 0 0 7 10 10 24 7 13 -2 27 -2 30 2 4 3 19 6 34 7
15 1 44 9 64 18 21 9 42 17 47 17 19 0 33 38 21 60 -10 19 -93 50 -136 50 -29
0 -54 10 -54 21 0 5 6 9 13 9 7 0 33 10 57 21 24 12 61 24 82 27 37 4 38 6 22
23 -12 14 -30 18 -70 18 -30 -1 -51 -5 -48 -10 3 -5 -4 -9 -14 -9 -11 0 -45
-11 -76 -25 -31 -14 -62 -24 -68 -22 -7 1 -14 -7 -16 -18 -2 -15 9 -25 46 -43
27 -13 56 -24 65 -26 9 -1 20 -5 23 -9 4 -4 18 -7 30 -7 13 0 26 -5 29 -10 4
-6 10 -8 15 -5 5 3 11 1 14 -3 11 -18 -220 -49 -243 -33 -16 11 -22 101 -6
101 6 0 5 4 -2 8 -16 10 -5 52 13 52 18 0 18 15 -1 34 -39 38 -151 32 -224
-12 -53 -33 -61 -32 -61 6 0 23 -2 24 -37 17 -38 -7 -56 -22 -47 -37 3 -4 -2
-8 -11 -8 -10 0 -14 -5 -9 -12 5 -10 3 -10 -7 0 -12 11 -12 14 1 22 11 7 6 10
-20 11 -28 0 -31 2 -15 8 17 7 14 10 -20 20 -46 12 -92 13 -150 0z m63 -21
c-2 -7 6 -14 17 -16 24 -3 86 -51 68 -52 -7 0 -13 5 -13 10 0 6 -4 10 -10 10
-5 0 -10 -6 -10 -13 0 -8 -16 -30 -37 -50 -20 -20 -33 -37 -28 -37 17 0 -43
-39 -71 -46 -16 -4 -31 -10 -34 -14 -8 -10 -70 9 -70 22 0 7 10 22 21 35 18
19 20 25 9 38 -11 13 -10 15 2 10 8 -3 23 4 34 16 12 15 14 20 4 15 -8 -4 -4
2 9 13 13 12 19 21 15 22 -19 1 33 18 59 18 15 1 26 4 26 9 -2 12 1 22 6 22 3
0 4 -6 3 -12z"/>
<path d="M10810 1080 c0 -5 -7 -7 -15 -4 -8 4 -15 1 -15 -5 0 -6 -5 -11 -11
-11 -5 0 -7 5 -4 10 22 36 -160 -56 -187 -95 -4 -5 -8 -6 -8 -1 0 5 -7 3 -15
-4 -9 -7 -14 -19 -11 -27 10 -24 -5 -14 -47 33 -22 25 -56 52 -75 60 -31 13
-37 13 -53 -2 -16 -15 -17 -18 -3 -32 16 -15 35 -54 40 -82 2 -8 9 -19 16 -25
20 -15 16 -41 -7 -37 -34 6 1 -24 55 -47 54 -23 65 -21 130 23 50 34 61 46 54
58 -3 4 2 8 11 8 9 0 29 14 45 30 16 17 34 30 40 30 6 0 9 4 6 9 -4 5 7 15 23
22 16 7 27 18 24 23 -4 6 1 6 13 2 10 -4 15 -4 11 0 -9 9 23 33 45 34 15 0 16
-4 8 -25 -5 -14 -7 -25 -4 -25 3 0 -4 -13 -15 -29 -12 -16 -21 -33 -21 -39 0
-5 -10 -13 -21 -18 -20 -9 -21 -11 -5 -27 16 -16 16 -17 -1 -17 -14 -1 -13 -4
7 -15 15 -9 19 -14 10 -15 -9 0 -4 -9 15 -24 28 -23 31 -23 48 -8 21 19 57 24
50 7 -5 -16 11 -21 70 -24 29 -1 47 2 47 9 0 6 -5 8 -12 4 -7 -4 -8 -3 -4 5 6
9 11 9 22 0 10 -8 14 -8 14 0 0 7 10 10 24 7 13 -2 27 -2 30 2 4 3 19 6 34 7
15 1 44 9 65 19 36 16 83 14 72 -4 -5 -8 84 -50 107 -50 7 0 43 11 80 24 57
21 73 23 105 14 21 -5 43 -14 49 -19 14 -11 41 -2 47 15 3 7 -5 13 -21 14 -14
1 -28 4 -30 7 -7 7 47 83 64 89 8 3 14 12 14 21 0 8 4 15 9 15 14 0 71 53 71
66 0 14 -28 27 -40 19 -5 -3 -11 -1 -15 5 -9 15 -28 12 -22 -3 3 -9 -3 -13
-17 -13 -14 1 -20 -4 -18 -16 2 -15 -28 -41 -53 -43 -27 -3 -65 -18 -65 -27 0
-5 -4 -6 -10 -3 -5 3 -15 1 -22 -5 -7 -6 -22 -18 -33 -26 -16 -12 -16 -14 -3
-10 10 3 20 1 23 -4 3 -5 -7 -12 -22 -16 -15 -4 -30 -10 -33 -13 -17 -20 -52
-31 -70 -21 -11 6 -20 14 -20 18 1 16 28 53 72 101 26 28 43 53 38 56 -4 3 -6
14 -3 24 7 27 -11 34 -32 11 -10 -11 -23 -20 -30 -20 -14 0 -75 -56 -75 -69 0
-5 -12 -18 -26 -28 -25 -19 -28 -19 -78 -1 -28 9 -63 17 -78 18 -33 0 -58 9
-58 21 0 5 6 9 13 9 7 0 33 10 57 21 24 12 61 24 82 27 37 4 38 6 22 23 -12
14 -30 18 -70 18 -30 -1 -51 -5 -48 -10 3 -5 -4 -9 -14 -9 -11 0 -44 -11 -74
-24 -66 -29 -90 -28 -98 5 -5 19 -12 24 -35 24 -17 0 -35 3 -42 8 -6 4 -24 2
-39 -5 -22 -10 -28 -10 -32 0 -4 14 -22 16 -22 2z m233 -120 c20 -11 46 -22
57 -23 11 -2 23 -6 26 -10 4 -4 18 -7 30 -7 13 0 26 -5 29 -10 4 -6 10 -8 15
-5 5 3 11 1 14 -3 5 -8 -68 -24 -174 -38 -25 -3 -52 -8 -60 -11 -53 -20 -62
-3 -33 69 25 65 37 69 96 38z"/>
</g>
</svg>
